<?xml version="1.0" encoding="UTF-8" standalone="no"?> <svg width="101" height="101" viewBox="0 0 101 101" fill="none" xmlns="http://www.w3.org/2000/svg">
<path d="M9.17401 27.2789H19.1C19.826 32.0159 23.917 35.6579 28.853 35.6579C33.789 35.6579 37.879 32.0149 38.606 27.2789H92.359C93.187 27.2789 93.859 26.6079 93.859 25.7789C93.859 24.9499 93.187 24.2789 92.359 24.2789H38.605C37.879 19.5429 33.788 15.8999 28.852 15.8999C23.916 15.8999 19.826 19.5429 19.099 24.2789H9.17401C8.34501 24.2789 7.67401 24.9499 7.67401 25.7789C7.67401 26.6079 8.34501 27.2789 9.17401 27.2789ZM28.852 18.8999C32.643 18.8999 35.727 21.9829 35.731 25.7719C35.731 25.7739 35.73 25.7759 35.73 25.7779C35.73 25.7799 35.731 25.7819 35.731 25.7839C35.727 29.5739 32.643 32.6569 28.852 32.6569C25.059 32.6569 21.973 29.5709 21.973 25.7779C21.973 21.9859 25.059 18.8999 28.852 18.8999Z" fill="#231F20" stroke="black" stroke-width="2.2"/>
<path d="M56.339 51.5069C57.065 56.2429 61.156 59.8859 66.092 59.8859C71.028 59.8859 75.118 56.2429 75.845 51.5069H91.179C92.007 51.5069 92.679 50.8349 92.679 50.0069C92.679 49.1779 92.007 48.5069 91.179 48.5069H75.844C75.118 43.7709 71.027 40.1279 66.091 40.1279C61.155 40.1279 57.065 43.7709 56.338 48.5069H7.995C7.166 48.5069 6.495 49.1779 6.495 50.0069C6.495 50.8349 7.166 51.5069 7.995 51.5069H56.339ZM66.092 43.1279C69.885 43.1279 72.971 46.2139 72.971 50.0069C72.971 53.7999 69.885 56.8859 66.092 56.8859C62.301 56.8859 59.217 53.8029 59.213 50.0139C59.213 50.0119 59.214 50.0099 59.214 50.0079C59.214 50.0059 59.213 50.0029 59.213 49.9999C59.217 46.2099 62.301 43.1279 66.092 43.1279Z" fill="#231F20" stroke="black" stroke-width="2.2"/>
<path d="M92.357 73.0738H38.605C37.879 68.3378 33.788 64.6948 28.852 64.6948C23.916 64.6948 19.826 68.3378 19.099 73.0738H9.17401C8.34501 73.0738 7.67401 73.7458 7.67401 74.5738C7.67401 75.4018 8.34501 76.0738 9.17401 76.0738H19.1C19.826 80.8098 23.917 84.4528 28.853 84.4528C33.789 84.4528 37.879 80.8098 38.606 76.0738H92.359C93.187 76.0738 93.859 75.4018 93.859 74.5738C93.859 73.7458 93.186 73.0738 92.357 73.0738ZM28.852 81.4528C25.059 81.4528 21.973 78.3668 21.973 74.5738C21.973 70.7808 25.059 67.6948 28.852 67.6948C32.645 67.6948 35.731 70.7808 35.731 74.5738C35.731 78.3668 32.645 81.4528 28.852 81.4528Z" fill="#231F20" stroke="black" stroke-width="2.2"/>
</svg>
